<?xml version="1.0" encoding="utf-8"?>
<!-- Generator: Adobe Illustrator 16.0.3, SVG Export Plug-In . SVG Version: 6.00 Build 0)  -->
<svg version="1.2" baseProfile="tiny" id="Layer_1" xmlns="http://www.w3.org/2000/svg" xmlns:xlink="http://www.w3.org/1999/xlink"
	 x="0px" y="0px" width="800px" height="800px" viewBox="0 0 800 800" xml:space="preserve">
<g>
	<text transform="matrix(1 0 0 1 229.2075 444.3379)" fill="#727374" font-family="'Raleway-Bold'" font-size="100.1222">C</text>
	<text transform="matrix(1 0 0 1 297.1904 444.3379)" fill="#727374" font-family="'Raleway-Bold'" font-size="100.1222">O</text>
	<text transform="matrix(1 0 0 1 372.8828 444.3379)" fill="#727374" font-family="'Raleway-Bold'" font-size="100.1222">D</text>
	<text transform="matrix(1 0 0 1 444.5684 444.3379)" fill="#727374" font-family="'Raleway-Bold'" font-size="100.1222">E</text>
	<text transform="matrix(1 0 0 1 504.7422 444.3379)" fill="#727374" font-family="'Raleway-Bold'" font-size="100.1222">P</text>
	<text transform="matrix(1 0 0 1 567.1172 444.3379)" fill="#727374" font-family="'Raleway-Bold'" font-size="100.1222">O</text>
	<text transform="matrix(1 0 0 1 639.5059 444.3379)" fill="#727374" font-family="'Raleway-Bold'" font-size="100.1222">T</text>
	<g>
		<g>
			<path fill="#58BF92" stroke="#58BF92" stroke-width="5" stroke-miterlimit="10" d="M97.837,365.404h-1.33
				c0-4.769,1.639-9.442,4.614-13.157l0.428-0.528c0.312-0.365,0.618-0.724,0.926-1.087c2.455-2.87,4.993-5.839,5.759-8.058
				c0.459-1.322,0.581-5.521,0.591-7.027l1.329,0.007c0,0.229-0.037,5.656-0.661,7.456c-0.851,2.456-3.471,5.522-6.006,8.487
				c-0.306,0.361-0.613,0.716-0.913,1.071l-0.418,0.514C99.333,356.609,97.837,360.871,97.837,365.404z"/>
		</g>
		<g>
			<path fill="#58BF92" stroke="#58BF92" stroke-width="5" stroke-miterlimit="10" d="M150.216,340.329c-0.348,0-0.694,0-1.035,0
				c-0.335,0-0.679,0-1.029,0c-10.825,0-39.701-1.239-43.239-6.9l-0.102-0.161l-0.006-12.593l0.1-0.161
				c3.54-5.66,32.418-6.901,43.246-6.901c0.346,0,0.692,0.003,1.03,0.003c0.348,0,0.689-0.003,1.037-0.003
				c10.828,0,39.704,1.241,43.242,6.901l0.1,0.161l-0.002,12.593l-0.103,0.161C189.917,339.09,161.041,340.329,150.216,340.329z
				 M149.182,338.997c0.345,0.001,0.689,0.002,1.035,0.002c18.536,0,39.132-2.289,42.006-6.128l0.009-11.8
				c-2.879-3.839-23.479-6.128-42.013-6.128c-0.345,0-0.685,0.002-1.024,0.003c-0.356-0.001-0.697-0.003-1.043-0.003
				c-18.537,0-39.137,2.289-42.016,6.128l0.01,11.8c2.874,3.839,23.47,6.128,42.007,6.128
				C148.5,338.999,148.843,338.998,149.182,338.997z"/>
		</g>
		<g>
			<path fill="#58BF92" stroke="#58BF92" stroke-width="5" stroke-miterlimit="10" d="M151.014,330.382
				c-1.016,0-1.665-0.009-1.839-0.011c-1.426,0.022-35.435,0.455-40.247-7.018l1.12-0.722c3.663,5.69,29.487,6.56,39.127,6.411
				c9.656,0.142,35.481-0.721,39.143-6.411l1.12,0.722C185.211,329.923,158.41,330.382,151.014,330.382z"/>
		</g>
		<g>
			<path fill="#1B4155" stroke="#58BF92" stroke-width="5" stroke-miterlimit="10" d="M159.537,486.387l-21.939-0.043
				c-7.987-0.367-17.14-2.195-24.515-4.89c-6.061-2.216-13.849-6.052-16.514-11.739l-0.063-0.13V365.404h1.33v103.88
				c4.284,8.788,23.937,15,39.792,15.726l21.89,0.046c16.354-0.438,36.672-6.875,41.013-15.771v-103.88h1.329v104.181l-0.062,0.13
				C196.989,479.98,174.163,485.995,159.537,486.387z"/>
		</g>
		<g>
			<path fill="#1B4155" stroke="#58BF92" stroke-width="5" stroke-miterlimit="10" d="M201.861,365.404h-1.329
				c0-4.533-1.496-8.795-4.324-12.325l-0.424-0.522c-0.29-0.344-0.596-0.698-0.902-1.061c-2.536-2.964-5.158-6.03-6.007-8.486
				c-0.624-1.8-0.661-7.227-0.663-7.456l1.331-0.007c0.01,1.506,0.132,5.705,0.591,7.027c0.764,2.219,3.305,5.188,5.758,8.058
				c0.309,0.363,0.617,0.722,0.916,1.075l0.436,0.537C200.224,355.962,201.861,360.636,201.861,365.404z"/>
		</g>
		<path fill="#58BF92" stroke="#58BF92" stroke-width="4" stroke-miterlimit="10" d="M189.213,449.491l-27.387-27.386
			c4.779-5.383,7.712-12.438,7.712-20.188c0-16.794-13.663-30.457-30.456-30.457c-16.797,0-30.458,13.663-30.458,30.457
			c0,16.795,13.66,30.455,30.458,30.455c7.747,0,14.803-2.931,20.187-7.71l27.385,27.387c0.352,0.352,0.818,0.528,1.279,0.528
			c0.464,0,0.929-0.177,1.28-0.528C189.921,451.34,189.921,450.199,189.213,449.491z M139.083,428.756
			c-14.8,0-26.84-12.04-26.84-26.838c0-14.799,12.04-26.838,26.84-26.838c14.796,0,26.836,12.039,26.836,26.838
			c0,6.75-2.522,12.907-6.649,17.627c-0.797,0.91-1.649,1.763-2.559,2.56C151.99,426.233,145.83,428.756,139.083,428.756z"/>
	</g>
</g>
<rect x="-427.868" y="35.608" fill="#727374" width="7.5" height="1.5"/>
</svg>
