<?xml version="1.0" encoding="UTF-8" standalone="no"?>
<!-- Created with Inkscape (http://www.inkscape.org/) -->

<svg
   xmlns:dc="http://purl.org/dc/elements/1.1/"
   xmlns:cc="http://creativecommons.org/ns#"
   xmlns:rdf="http://www.w3.org/1999/02/22-rdf-syntax-ns#"
   xmlns:svg="http://www.w3.org/2000/svg"
   xmlns="http://www.w3.org/2000/svg"
   xmlns:sodipodi="http://sodipodi.sourceforge.net/DTD/sodipodi-0.dtd"
   xmlns:inkscape="http://www.inkscape.org/namespaces/inkscape"
   width="114.5474mm"
   height="105.5702mm"
   viewBox="0 0 405.87662 374.06763"
   id="svg3513"
   version="1.1"
   inkscape:version="0.91 r13725"
   sodipodi:docname="add-logo.svg">
  <defs
     id="defs3515" />
  <sodipodi:namedview
     id="base"
     pagecolor="#ffffff"
     bordercolor="#666666"
     borderopacity="1.0"
     inkscape:pageopacity="0.0"
     inkscape:pageshadow="2"
     inkscape:zoom="0.49497475"
     inkscape:cx="1010.1505"
     inkscape:cy="-169.95133"
     inkscape:document-units="px"
     inkscape:current-layer="layer1"
     showgrid="false"
     inkscape:window-width="1855"
     inkscape:window-height="1176"
     inkscape:window-x="65"
     inkscape:window-y="24"
     inkscape:window-maximized="1"
     fit-margin-top="0"
     fit-margin-left="0"
     fit-margin-right="0"
     fit-margin-bottom="0" />
  <metadata
     id="metadata3518">
    <rdf:RDF>
      <cc:Work
         rdf:about="">
        <dc:format>image/svg+xml</dc:format>
        <dc:type
           rdf:resource="http://purl.org/dc/dcmitype/StillImage" />
        <dc:title></dc:title>
      </cc:Work>
    </rdf:RDF>
  </metadata>
  <g
     inkscape:label="Layer 1"
     inkscape:groupmode="layer"
     id="layer1"
     transform="translate(-296.37862,-461.34888)">
    <path
       inkscape:connector-curvature="0"
       style="clip-rule:evenodd;fill:#fbc311;fill-rule:evenodd;stroke:#000000;stroke-width:0;stroke-miterlimit:10"
       stroke-miterlimit="10"
       d="m 543.14082,473.08714 c 40.45282,22.92326 55.28552,76.86035 31.01383,117.31317 L 458.1899,791.31598 C 433.91821,831.7688 381.32954,846.6015 340.87672,822.32981 300.4239,799.40655 285.5912,745.46945 309.8629,705.01663 L 425.82764,504.10096 c 22.92327,-40.45282 75.51193,-53.93709 117.31318,-31.01382 z m -24.27169,43.14967 0,0 c -17.52956,-10.78742 -40.45282,-4.04528 -51.24024,13.48427 L 350.31572,730.63675 c -10.78742,17.52956 -4.04529,40.45282 13.48427,51.24024 17.52955,10.78742 40.45282,4.04528 51.24024,-13.48427 L 531.00498,567.47705 c 10.78741,-18.87798 5.3937,-41.80125 -12.13585,-51.24024 z"
       id="path3440" />
    <path
       inkscape:connector-curvature="0"
       style="clip-rule:evenodd;fill:#c5d92d;fill-rule:evenodd;stroke:#000000;stroke-width:0;stroke-miterlimit:10"
       stroke-miterlimit="10"
       d="m 615.9559,663.21539 -83.6025,0 -28.31697,48.54338 110.57104,0 c 20.22641,0 37.75596,17.52956 37.75596,37.75597 0,20.22641 -17.52955,37.75596 -37.75596,37.75596 l -231.9295,0 c -20.22641,0 -37.75596,-17.52955 -37.75596,-37.75596 0,-20.22641 17.52955,-37.75597 37.75596,-37.75597 l 64.72451,0 28.31698,-48.54338 -93.04149,0 c -47.19496,0 -86.29935,39.10439 -86.29935,84.95092 0,47.19495 39.10439,86.29935 86.29935,86.29935 l 233.27793,0 c 47.19495,0 86.29934,-39.1044 86.29934,-86.29935 -1.34842,-45.84653 -39.10439,-84.95092 -86.29934,-84.95092 z"
       id="path3442" />
    <path
       inkscape:connector-curvature="0"
       style="clip-rule:evenodd;fill:#4fc8ef;fill-rule:evenodd;stroke:#000000;stroke-width:0;stroke-miterlimit:10"
       stroke-miterlimit="10"
       d="M 690.1194,706.36506 574.15465,504.10096 c -24.27169,-40.45282 -76.86036,-55.28552 -117.31318,-31.01382 -41.80124,24.27169 -55.28552,76.86035 -32.36225,117.31317 l 41.80124,72.81508 8.09057,0 24.27169,-40.45282 -32.36226,-56.63395 c -10.78741,-17.52955 -4.04528,-40.45282 13.48428,-51.24024 17.52955,-10.78742 40.45282,-4.04528 51.24024,13.48428 l 115.96474,200.91567 c 10.78742,17.52955 4.04529,40.45282 -13.48427,51.24023 -17.52955,10.78742 -40.45282,4.04529 -51.24024,-13.48427 l -31.01383,-55.28552 -47.19495,0 -4.04528,8.09056 41.80124,72.81508 c 22.92327,40.45282 76.86036,55.28552 117.31318,31.01383 40.45282,-24.27169 53.93709,-76.86036 31.01383,-117.31318 z"
       id="path3444" />
  </g>
</svg>
