<?xml version="1.0" encoding="utf-8"?>
<!-- Generator: Adobe Illustrator 18.1.1, SVG Export Plug-In . SVG Version: 6.00 Build 0)  -->
<svg version="1.1" id="Layer_1" xmlns="http://www.w3.org/2000/svg" xmlns:xlink="http://www.w3.org/1999/xlink" x="0px" y="0px"
	 viewBox="0 0 31.2 28.3" enable-background="new 0 0 31.2 28.3" xml:space="preserve">
<g>
	<linearGradient id="SVGID_1_" gradientUnits="userSpaceOnUse" x1="6.9225" y1="22.0027" x2="16.485" y2="4.9692">
		<stop  offset="0" style="stop-color:#FAC113"/>
		<stop  offset="1" style="stop-color:#F15A22"/>
	</linearGradient>
	<path fill-rule="evenodd" clip-rule="evenodd" fill="url(#SVGID_1_)" d="M18.8,1.2L18.8,1.2c3,1.7,4.1,5.7,2.3,8.7l-8.6,14.9
		c-1.8,3-5.7,4.1-8.7,2.3l0,0c-3-1.7-4.1-5.7-2.3-8.7l8.6-14.9C11.9,0.5,15.8-0.5,18.8,1.2L18.8,1.2z M17,4.3c-1.3-0.8-3-0.3-3.8,1
		L4.6,20.3c-0.8,1.3-0.3,3,1,3.8c1.3,0.8,3,0.3,3.8-1L18,8.1C18.8,6.8,18.3,5.1,17,4.3L17,4.3z"/>
	<linearGradient id="SVGID_2_" gradientUnits="userSpaceOnUse" x1="6.7465" y1="21.6449" x2="24.2307" y2="21.6449">
		<stop  offset="0" style="stop-color:#2DA048"/>
		<stop  offset="1" style="stop-color:#C4D92E"/>
	</linearGradient>
	<path fill-rule="evenodd" clip-rule="evenodd" fill="url(#SVGID_2_)" d="M24.2,15.3H18L16,18.9h8.2c1.5,0,2.8,1.3,2.8,2.8
		c0,1.5-1.3,2.8-2.8,2.8H7c-1.5,0-2.8-1.3-2.8-2.8c0-1.5,1.3-2.8,2.8-2.8h4.8l2.1-3.6H7c-3.5,0-6.4,2.9-6.4,6.3
		C0.6,25.1,3.5,28,7,28h17.3c3.5,0,6.4-2.9,6.4-6.4C30.6,18.1,27.7,15.3,24.2,15.3z"/>
	<linearGradient id="SVGID_3_" gradientUnits="userSpaceOnUse" x1="14.0451" y1="5.0181" x2="27.1565" y2="25.4138">
		<stop  offset="0" style="stop-color:#4DC8EE"/>
		<stop  offset="1" style="stop-color:#0B89B3"/>
	</linearGradient>
	<path fill-rule="evenodd" clip-rule="evenodd" fill="url(#SVGID_3_)" d="M29.7,18.4L21.1,3.5c-1.8-3-5.7-4.1-8.7-2.3
		c-3,1.8-4.1,5.7-2.3,8.7l3.1,5.4h0.6l1.8-3l-2.4-4.2c-0.8-1.3-0.3-3,1-3.8c1.3-0.8,3-0.3,3.8,1l8.6,14.9c0.8,1.3,0.3,3-1,3.8
		c-1.3,0.8-3,0.3-3.8-1l-2.4-4.1H16l-0.3,0.6l3.1,5.4c1.7,3,5.7,4.1,8.7,2.3C30.5,25.4,31.5,21.5,29.7,18.4z"/>
</g>
</svg>
