<?xml version="1.0" encoding="utf-8"?>
<!-- Generator: Adobe Illustrator 18.1.1, SVG Export Plug-In . SVG Version: 6.00 Build 0)  -->
<svg version="1.1" id="Layer_1" xmlns="http://www.w3.org/2000/svg" xmlns:xlink="http://www.w3.org/1999/xlink" x="0px" y="0px"
	 viewBox="0 0 104.9 28.3" enable-background="new 0 0 104.9 28.3" xml:space="preserve">
<g>
	<linearGradient id="SVGID_1_" gradientUnits="userSpaceOnUse" x1="7.5652" y1="22.1195" x2="17.1277" y2="5.086">
		<stop  offset="0" style="stop-color:#FAC113"/>
		<stop  offset="1" style="stop-color:#F15A22"/>
	</linearGradient>
	<path fill-rule="evenodd" clip-rule="evenodd" fill="url(#SVGID_1_)" d="M19.5,1.3L19.5,1.3c3,1.7,4.1,5.7,2.3,8.7l-8.6,14.9
		c-1.8,3-5.7,4.1-8.7,2.3l0,0c-3-1.7-4.1-5.7-2.3-8.7l8.6-14.9C12.5,0.6,16.4-0.4,19.5,1.3L19.5,1.3z M17.7,4.5
		c-1.3-0.8-3-0.3-3.8,1L5.2,20.4c-0.8,1.3-0.3,3,1,3.8c1.3,0.8,3,0.3,3.8-1l8.6-14.9C19.4,6.9,19,5.2,17.7,4.5L17.7,4.5z"/>
	<linearGradient id="SVGID_2_" gradientUnits="userSpaceOnUse" x1="7.3892" y1="21.7618" x2="24.8734" y2="21.7618">
		<stop  offset="0" style="stop-color:#2DA048"/>
		<stop  offset="1" style="stop-color:#C4D92E"/>
	</linearGradient>
	<path fill-rule="evenodd" clip-rule="evenodd" fill="url(#SVGID_2_)" d="M24.9,15.4h-6.2L16.6,19h8.2c1.5,0,2.8,1.3,2.8,2.8
		c0,1.5-1.3,2.8-2.8,2.8H7.6c-1.5,0-2.8-1.3-2.8-2.8c0-1.5,1.3-2.8,2.8-2.8h4.8l2.1-3.6H7.6c-3.5,0-6.4,2.9-6.4,6.3
		c0,3.5,2.9,6.4,6.4,6.4h17.3c3.5,0,6.4-2.9,6.4-6.4C31.2,18.3,28.4,15.4,24.9,15.4z"/>
	<linearGradient id="SVGID_3_" gradientUnits="userSpaceOnUse" x1="14.6878" y1="5.1349" x2="27.7993" y2="25.5306">
		<stop  offset="0" style="stop-color:#4DC8EE"/>
		<stop  offset="1" style="stop-color:#0B89B3"/>
	</linearGradient>
	<path fill-rule="evenodd" clip-rule="evenodd" fill="url(#SVGID_3_)" d="M30.4,18.6L21.8,3.6c-1.8-3-5.7-4.1-8.7-2.3
		C10,3.1,9,7,10.7,10l3.1,5.4h0.6l1.8-3l-2.4-4.2c-0.8-1.3-0.3-3,1-3.8c1.3-0.8,3-0.3,3.8,1l8.6,14.9c0.8,1.3,0.3,3-1,3.8
		c-1.3,0.8-3,0.3-3.8-1L20.1,19h-3.5l-0.3,0.6l3.1,5.4c1.7,3,5.7,4.1,8.7,2.3C31.1,25.5,32.1,21.6,30.4,18.6z"/>
	<g>
		<path fill="#FFFFFF" d="M36.4,7.9C36.4,7.9,36.4,7.9,36.4,7.9l2.2-7.3c0.1-0.3,0.4-0.4,0.8-0.4c0.4,0,0.7,0.1,0.8,0.4l2.2,7.2
			c0,0,0,0.1,0,0.1c0,0.1-0.1,0.3-0.3,0.4c-0.2,0.1-0.4,0.2-0.5,0.2c-0.2,0-0.4-0.1-0.4-0.2l-0.5-1.6H38l-0.5,1.6
			c-0.1,0.2-0.2,0.2-0.4,0.2c-0.2,0-0.3,0-0.5-0.1C36.5,8.2,36.4,8.1,36.4,7.9z M38.3,5.7h2.2l-1.1-3.8L38.3,5.7z"/>
		<path fill="#FFFFFF" d="M43.2,6V2.8c0-0.9,0.2-1.5,0.7-1.9c0.5-0.4,1-0.6,1.8-0.6c0.7,0,1.4,0.2,1.8,0.6s0.7,0.9,0.7,1.5
			c0,0.2,0,0.4-0.1,0.4c-0.1,0.1-0.2,0.1-0.5,0.1c-0.4,0-0.6-0.1-0.6-0.4c-0.1-0.8-0.5-1.2-1.3-1.2c-0.9,0-1.3,0.5-1.3,1.4V6
			c0,1,0.4,1.4,1.3,1.4c0.4,0,0.8-0.1,1-0.4C46.9,6.9,47,6.5,47,6V5.1h-1.1c-0.1,0-0.2,0-0.3-0.1c-0.1-0.1-0.1-0.2-0.1-0.3
			c0-0.1,0-0.2,0.1-0.3c0.1-0.1,0.2-0.1,0.3-0.1h1.9c0.1,0,0.2,0,0.3,0.1c0.1,0.1,0.1,0.2,0.1,0.3V6c0,0.9-0.2,1.5-0.7,1.9
			c-0.5,0.4-1.1,0.6-1.8,0.6c-0.8,0-1.4-0.2-1.8-0.6C43.4,7.5,43.2,6.9,43.2,6z"/>
		<path fill="#FFFFFF" d="M49.4,8V0.7c0-0.1,0.1-0.2,0.2-0.3c0.1-0.1,0.3-0.1,0.4-0.1c0.2,0,0.3,0,0.4,0.1c0.1,0.1,0.2,0.2,0.2,0.3
			V8c0,0.1-0.1,0.2-0.2,0.3c-0.1,0.1-0.3,0.1-0.4,0.1c-0.2,0-0.3,0-0.4-0.1C49.5,8.3,49.4,8.2,49.4,8z"/>
		<path fill="#FFFFFF" d="M52.1,8V0.7c0-0.1,0.1-0.2,0.2-0.3s0.3-0.1,0.4-0.1s0.3,0,0.4,0.1c0.1,0.1,0.2,0.2,0.2,0.3v6.7h2.9
			c0.1,0,0.2,0.1,0.3,0.2c0.1,0.1,0.1,0.2,0.1,0.4c0,0.1,0,0.3-0.1,0.4c-0.1,0.1-0.1,0.2-0.3,0.2h-3.6c-0.1,0-0.3,0-0.4-0.1
			C52.1,8.3,52.1,8.2,52.1,8z"/>
		<path fill="#FFFFFF" d="M57.4,8V0.7c0-0.1,0.1-0.2,0.2-0.3c0.1-0.1,0.2-0.1,0.4-0.1h4c0.1,0,0.2,0.1,0.3,0.2
			c0.1,0.1,0.1,0.2,0.1,0.4c0,0.1,0,0.3-0.1,0.4c-0.1,0.1-0.2,0.2-0.3,0.2h-3.3v2.5h1.7c0.1,0,0.2,0,0.3,0.1
			c0.1,0.1,0.1,0.2,0.1,0.3c0,0.1,0,0.2-0.1,0.3c-0.1,0.1-0.2,0.1-0.3,0.1h-1.7v2.6h3.3c0.1,0,0.2,0.1,0.3,0.2
			c0.1,0.1,0.1,0.2,0.1,0.4c0,0.1,0,0.3-0.1,0.4c-0.1,0.1-0.2,0.2-0.3,0.2h-4c-0.1,0-0.3,0-0.4-0.1C57.4,8.3,57.4,8.2,57.4,8z"/>
		<path fill="#FFFFFF" d="M37,17.7v-7.4c0-0.1,0-0.2,0.2-0.3c0.1-0.1,0.2-0.1,0.4-0.1h2c0.8,0,1.4,0.2,1.8,0.6
			c0.5,0.4,0.7,1,0.7,1.9v3.2c0,0.9-0.2,1.5-0.7,1.9c-0.5,0.4-1.1,0.6-1.8,0.6h-2c-0.1,0-0.3,0-0.4-0.1C37,17.9,37,17.8,37,17.7z
			 M38.2,17h1.3c0.9,0,1.3-0.5,1.3-1.4v-3.2c0-1-0.4-1.4-1.3-1.4h-1.3V17z"/>
		<path fill="#FFFFFF" d="M43.4,17.7v-7.4c0-0.1,0.1-0.2,0.2-0.3c0.1-0.1,0.2-0.1,0.4-0.1h4c0.1,0,0.2,0.1,0.3,0.2
			c0.1,0.1,0.1,0.2,0.1,0.4c0,0.1,0,0.3-0.1,0.4C48.1,10.9,48,11,47.8,11h-3.3v2.5h1.7c0.1,0,0.2,0,0.3,0.1c0.1,0.1,0.1,0.2,0.1,0.3
			c0,0.1,0,0.2-0.1,0.3c-0.1,0.1-0.2,0.1-0.3,0.1h-1.7V17h3.3c0.1,0,0.2,0.1,0.3,0.2c0.1,0.1,0.1,0.2,0.1,0.4c0,0.1,0,0.3-0.1,0.4
			c-0.1,0.1-0.2,0.2-0.3,0.2h-4c-0.1,0-0.3,0-0.4-0.1C43.4,17.9,43.4,17.8,43.4,17.7z"/>
		<path fill="#FFFFFF" d="M48.6,10.4c0-0.1,0.1-0.2,0.2-0.3c0.2-0.1,0.3-0.1,0.5-0.1c0.2,0,0.4,0.1,0.4,0.2l1.8,6.3l1.8-6.3
			c0.1-0.2,0.2-0.2,0.4-0.2c0.2,0,0.3,0,0.5,0.1c0.2,0.1,0.2,0.2,0.2,0.3c0,0,0,0.1,0,0.1l-2.2,7.2c0,0.1-0.1,0.2-0.3,0.3
			c-0.1,0.1-0.3,0.1-0.5,0.1c-0.4,0-0.7-0.1-0.7-0.4l-2.2-7.2C48.6,10.5,48.6,10.5,48.6,10.4z"/>
		<path fill="#FFFFFF" d="M55.4,17.7v-7.4c0-0.1,0.1-0.2,0.2-0.3c0.1-0.1,0.2-0.1,0.4-0.1h4c0.1,0,0.2,0.1,0.3,0.2
			c0.1,0.1,0.1,0.2,0.1,0.4c0,0.1,0,0.3-0.1,0.4C60.1,10.9,60,11,59.9,11h-3.3v2.5h1.7c0.1,0,0.2,0,0.3,0.1c0.1,0.1,0.1,0.2,0.1,0.3
			c0,0.1,0,0.2-0.1,0.3c-0.1,0.1-0.2,0.1-0.3,0.1h-1.7V17h3.3c0.1,0,0.2,0.1,0.3,0.2c0.1,0.1,0.1,0.2,0.1,0.4c0,0.1,0,0.3-0.1,0.4
			c-0.1,0.1-0.2,0.2-0.3,0.2h-4c-0.1,0-0.3,0-0.4-0.1C55.5,17.9,55.4,17.8,55.4,17.7z"/>
		<path fill="#FFFFFF" d="M61.2,17.7v-7.4c0-0.1,0.1-0.2,0.2-0.3c0.1-0.1,0.3-0.1,0.4-0.1s0.3,0,0.4,0.1c0.1,0.1,0.2,0.2,0.2,0.3V17
			h2.9c0.1,0,0.2,0.1,0.3,0.2c0.1,0.1,0.1,0.2,0.1,0.4c0,0.1,0,0.3-0.1,0.4c-0.1,0.1-0.2,0.2-0.3,0.2h-3.5c-0.1,0-0.3,0-0.4-0.1
			C61.3,17.9,61.2,17.8,61.2,17.7z"/>
		<path fill="#FFFFFF" d="M66.3,15.7v-3.2c0-0.9,0.2-1.5,0.7-1.9c0.5-0.4,1.1-0.6,1.8-0.6c0.8,0,1.4,0.2,1.8,0.6
			c0.5,0.4,0.7,1,0.7,1.9v3.2c0,0.9-0.2,1.5-0.7,1.9c-0.5,0.4-1.1,0.6-1.8,0.6c-0.8,0-1.4-0.2-1.8-0.6
			C66.6,17.1,66.3,16.5,66.3,15.7z M67.5,15.7c0,1,0.4,1.4,1.3,1.4c0.4,0,0.7-0.1,1-0.4c0.2-0.2,0.3-0.6,0.3-1.1v-3.2
			c0-0.5-0.1-0.8-0.3-1.1c-0.2-0.2-0.6-0.4-1-0.4c-0.9,0-1.3,0.5-1.3,1.4V15.7z"/>
		<path fill="#FFFFFF" d="M72.7,17.7v-7.4c0-0.1,0-0.2,0.1-0.3c0.1-0.1,0.2-0.1,0.3-0.1h2.2c0.7,0,1.3,0.2,1.8,0.6
			c0.4,0.4,0.7,1,0.7,1.9v0.1c0,0.8-0.2,1.5-0.7,1.9c-0.5,0.4-1.1,0.6-1.8,0.6h-1.4v2.7c0,0.1-0.1,0.2-0.2,0.3
			c-0.1,0.1-0.3,0.1-0.4,0.1c-0.2,0-0.3,0-0.4-0.1C72.8,17.9,72.7,17.8,72.7,17.7z M73.9,14h1.4c0.4,0,0.8-0.1,1-0.4
			c0.2-0.2,0.3-0.6,0.3-1.1v-0.1c0-0.5-0.1-0.8-0.3-1.1c-0.2-0.2-0.6-0.4-1-0.4h-1.4V14z"/>
		<path fill="#FFFFFF" d="M78.8,17.7v-7.2c0-0.2,0.1-0.3,0.2-0.4c0.1-0.1,0.3-0.1,0.4-0.1c0.2,0,0.4,0,0.5,0.1
			c0.1,0.1,0.3,0.3,0.4,0.5l1.6,2.9l1.6-2.9c0.1-0.3,0.3-0.4,0.4-0.5c0.1-0.1,0.3-0.1,0.5-0.1c0.2,0,0.3,0,0.4,0.1
			c0.1,0.1,0.2,0.2,0.2,0.4v7.2c0,0.1-0.1,0.2-0.2,0.3c-0.1,0.1-0.3,0.1-0.4,0.1c-0.2,0-0.3,0-0.4-0.1c-0.1-0.1-0.2-0.2-0.2-0.3
			v-5.3l-1.5,2.8c-0.1,0.2-0.3,0.3-0.4,0.3c-0.2,0-0.3-0.1-0.4-0.3L80,12.3v5.4c0,0.1-0.1,0.2-0.2,0.3c-0.1,0.1-0.3,0.1-0.4,0.1
			c-0.2,0-0.3,0-0.4-0.1C78.8,17.9,78.8,17.8,78.8,17.7z"/>
		<path fill="#FFFFFF" d="M86.4,17.7v-7.4c0-0.1,0.1-0.2,0.2-0.3c0.1-0.1,0.2-0.1,0.4-0.1h4c0.1,0,0.2,0.1,0.3,0.2
			c0.1,0.1,0.1,0.2,0.1,0.4c0,0.1,0,0.3-0.1,0.4C91.1,10.9,91,11,90.9,11h-3.3v2.5h1.7c0.1,0,0.2,0,0.3,0.1c0.1,0.1,0.1,0.2,0.1,0.3
			c0,0.1,0,0.2-0.1,0.3c-0.1,0.1-0.2,0.1-0.3,0.1h-1.7V17h3.3c0.1,0,0.2,0.1,0.3,0.2c0.1,0.1,0.1,0.2,0.1,0.4c0,0.1,0,0.3-0.1,0.4
			c-0.1,0.1-0.2,0.2-0.3,0.2h-4c-0.1,0-0.3,0-0.4-0.1C86.5,17.9,86.4,17.8,86.4,17.7z"/>
		<path fill="#FFFFFF" d="M92.2,17.7v-7.4c0-0.3,0.2-0.4,0.6-0.4c0.2,0,0.4,0,0.5,0.1c0.1,0.1,0.3,0.3,0.4,0.5l2.5,4.8v-5.1
			c0-0.1,0.1-0.2,0.2-0.3c0.1-0.1,0.3-0.1,0.4-0.1c0.2,0,0.3,0,0.4,0.1c0.1,0.1,0.2,0.2,0.2,0.3v7.4c0,0.1-0.1,0.2-0.2,0.3
			c-0.1,0.1-0.3,0.1-0.4,0.1c-0.3,0-0.5-0.1-0.7-0.4l-2.7-5.1v5.1c0,0.1-0.1,0.2-0.2,0.3c-0.1,0.1-0.3,0.1-0.4,0.1
			c-0.2,0-0.3,0-0.4-0.1C92.3,17.9,92.2,17.8,92.2,17.7z"/>
		<path fill="#FFFFFF" d="M98.3,10.5c0-0.1,0-0.3,0.1-0.4c0.1-0.1,0.2-0.2,0.3-0.2h4.6c0.1,0,0.2,0.1,0.3,0.2
			c0.1,0.1,0.1,0.2,0.1,0.4c0,0.2,0,0.3-0.1,0.4c-0.1,0.1-0.2,0.2-0.3,0.2h-1.7v6.7c0,0.1-0.1,0.2-0.2,0.3c-0.1,0.1-0.3,0.1-0.4,0.1
			c-0.2,0-0.3,0-0.4-0.1c-0.1-0.1-0.2-0.2-0.2-0.3V11h-1.7c-0.1,0-0.2-0.1-0.3-0.2C98.3,10.8,98.3,10.6,98.3,10.5z"/>
		<path fill="#FFFFFF" d="M37,27.3V20c0-0.1,0-0.2,0.2-0.3c0.1-0.1,0.2-0.1,0.4-0.1h2c0.8,0,1.4,0.2,1.8,0.6c0.5,0.4,0.7,1,0.7,1.9
			v3.2c0,0.9-0.2,1.5-0.7,1.9c-0.5,0.4-1.1,0.6-1.8,0.6h-2c-0.1,0-0.3,0-0.4-0.1C37,27.5,37,27.4,37,27.3z M38.2,26.7h1.3
			c0.9,0,1.3-0.5,1.3-1.4v-3.2c0-1-0.4-1.4-1.3-1.4h-1.3V26.7z"/>
		<path fill="#FFFFFF" d="M42.8,27.2C42.8,27.2,42.8,27.1,42.8,27.2l2.2-7.3c0.1-0.3,0.4-0.4,0.8-0.4c0.4,0,0.7,0.1,0.8,0.4l2.2,7.2
			c0,0,0,0.1,0,0.1c0,0.1-0.1,0.3-0.3,0.4c-0.2,0.1-0.4,0.2-0.6,0.2c-0.2,0-0.4-0.1-0.4-0.2l-0.5-1.6h-2.7l-0.5,1.6
			c-0.1,0.2-0.2,0.2-0.4,0.2c-0.2,0-0.3,0-0.5-0.1C42.9,27.5,42.8,27.4,42.8,27.2z M44.6,24.9h2.2l-1.1-3.8L44.6,24.9z"/>
		<path fill="#FFFFFF" d="M48.3,20.1c0-0.1,0.1-0.2,0.2-0.3c0.2-0.1,0.3-0.1,0.5-0.1c0.2,0,0.3,0.1,0.4,0.3l1.8,3.5l1.8-3.5
			c0.1-0.2,0.2-0.3,0.4-0.3c0.2,0,0.3,0,0.5,0.1c0.2,0.1,0.2,0.2,0.2,0.3c0,0.1,0,0.1,0,0.2l-2.3,4.2c0,0,0,0.1,0,0.1v2.8
			c0,0.1-0.1,0.2-0.2,0.3c-0.1,0.1-0.3,0.1-0.4,0.1c-0.2,0-0.3,0-0.4-0.1c-0.1-0.1-0.2-0.2-0.2-0.3v-2.8c0,0,0-0.1,0-0.1l-2.3-4.2
			C48.3,20.2,48.3,20.1,48.3,20.1z"/>
		<path fill="#FFFFFF" d="M57,27.3v-1.1c0-0.3,0.1-0.7,0.4-1c0.2-0.3,0.5-0.6,0.9-0.9l1.1-0.8c0.4-0.3,0.7-0.5,0.9-0.9
			c0.2-0.3,0.4-0.6,0.4-0.9c0-0.3-0.1-0.6-0.3-0.8c-0.2-0.2-0.5-0.3-0.9-0.3c-0.3,0-0.6,0.1-0.8,0.3c-0.2,0.2-0.3,0.5-0.3,0.8
			c0,0.1-0.1,0.2-0.2,0.3c-0.1,0.1-0.3,0.1-0.5,0.1c-0.4,0-0.5-0.2-0.5-0.7c0-0.6,0.2-1.1,0.7-1.4c0.4-0.4,1-0.6,1.6-0.6
			c0.7,0,1.2,0.2,1.7,0.6c0.5,0.4,0.7,0.9,0.7,1.6c0,0.4-0.1,0.9-0.4,1.2c-0.2,0.4-0.5,0.7-0.9,1c-0.4,0.3-0.7,0.5-1.1,0.8
			c-0.4,0.2-0.7,0.5-0.9,0.7c-0.2,0.2-0.4,0.5-0.4,0.7v0.4h3.3c0.1,0,0.2,0,0.3,0.2c0.1,0.1,0.1,0.2,0.1,0.4c0,0.1,0,0.3-0.1,0.4
			c-0.1,0.1-0.2,0.2-0.3,0.2h-3.9c-0.1,0-0.2,0-0.3-0.1C57,27.5,57,27.4,57,27.3z"/>
		<path fill="#FFFFFF" d="M67.1,20.2c-0.5-0.4-1.1-0.6-1.8-0.6c-0.8,0-1.4,0.2-1.8,0.6c-0.5,0.4-0.7,1-0.7,1.9v3.2
			c0,0.9,0.2,1.5,0.7,1.9c0.5,0.4,1.1,0.6,1.8,0.6c0.8,0,1.4-0.2,1.8-0.6c0.5-0.4,0.7-1,0.7-1.9v-3.2C67.7,21.2,67.5,20.6,67.1,20.2
			z M65.2,20.6c0.4,0,0.8,0.1,1,0.4c0.1,0.1,0.1,0.2,0.2,0.3l-2.5,3.6v-2.8C63.9,21.1,64.3,20.6,65.2,20.6z M66.2,26.4
			c-0.2,0.2-0.6,0.4-1,0.4c-0.6,0-0.9-0.2-1.1-0.6l2.5-3.6v2.7C66.6,25.8,66.4,26.1,66.2,26.4z"/>
		<path fill="#FFFFFF" d="M68.3,21.3c0-0.2,0.1-0.3,0.2-0.5l1.2-1.1c0.1-0.1,0.2-0.1,0.3-0.1c0.1,0,0.3,0,0.4,0.1
			c0.1,0.1,0.2,0.2,0.2,0.3v7.4c0,0.1-0.1,0.2-0.2,0.3c-0.1,0.1-0.3,0.1-0.4,0.1c-0.2,0-0.3,0-0.4-0.1c-0.1-0.1-0.2-0.2-0.2-0.3
			v-6.2L69,21.6c-0.1,0.1-0.2,0.1-0.2,0.1c-0.1,0-0.2,0-0.3-0.2C68.4,21.5,68.3,21.4,68.3,21.3z"/>
	</g>
	<g>
		<path fill="#FFFFFF" d="M74.3,27.8c-1.3,0-2-0.7-2.2-1.3c0-0.1,0-0.2,0-0.2c0-0.3,0.2-0.5,0.5-0.5c0.2,0,0.4,0.1,0.5,0.3
			c0.3,0.4,0.7,0.6,1.2,0.6c0.6,0,0.9-0.3,1.1-0.7c0.1-0.3,0.1-0.5,0.1-0.9c0-0.4,0-0.7-0.1-0.9c-0.2-0.5-0.5-0.7-1.1-0.7
			c-0.4,0-0.7,0.1-1,0.5c-0.2,0.3-0.4,0.4-0.6,0.4c-0.4,0-0.6-0.2-0.6-0.6v-3.5c0-0.3,0.2-0.5,0.5-0.5h3.4c0.3,0,0.6,0.2,0.6,0.5
			s-0.2,0.5-0.6,0.5h-2.7c-0.1,0-0.1,0-0.1,0.1v1.9h0l0.1,0c0.3-0.3,0.7-0.4,1.2-0.4c1,0,1.7,0.4,2,1.3c0.1,0.4,0.2,0.8,0.2,1.4
			c0,0.5-0.1,0.9-0.2,1.3C76.3,27.2,75.4,27.8,74.3,27.8z"/>
	</g>
</g>
</svg>
